<svg xmlns="http://www.w3.org/2000/svg" version="1.1" xmlns:xlink="http://www.w3.org/1999/xlink" xmlns:svgjs="http://svgjs.dev/svgjs" width="2000" height="338" viewBox="0 0 2000 338"><g transform="matrix(1,0,0,1,-1.2121212121213603,-0.581310296512612)"><svg viewBox="0 0 396 67" data-background-color="#ffffff" preserveAspectRatio="xMidYMid meet" height="338" width="2000" xmlns="http://www.w3.org/2000/svg" xmlns:xlink="http://www.w3.org/1999/xlink"><g id="tight-bounds" transform="matrix(1,0,0,1,0.24000000000003752,0.1152301475335662)"><svg viewBox="0 0 395.5199999999999 66.76953970493285" height="66.76953970493285" width="395.5199999999999"><g><svg viewBox="0 0 492.95306867692307 83.21766153846154" height="66.76953970493285" width="395.5199999999999"><g transform="matrix(1,0,0,1,97.43306867692309,11.501138461538464)"><svg viewBox="0 0 395.52 60.215384615384615" height="60.215384615384615" width="395.52"><g id="textblocktransform"><svg viewBox="0 0 395.52 60.215384615384615" height="60.215384615384615" width="395.52" id="textblock"><g><svg viewBox="0 0 395.52 60.215384615384615" height="60.215384615384615" width="395.52"><g transform="matrix(1,0,0,1,0,0)"><svg width="395.52" viewBox="-0.55 -37.5 249.58 38" height="60.215384615384615" data-palette-color="#000000"><path d="M13.3 0L11.3 0 2.65-35.3-0.55-35.3-0.55-37 11.25-37 11.25-35.3 6.2-35.3 13.15-6.4 20.2-35.3 16.7-35.3 16.7-37 24.6-37 24.6-35.3 21.95-35.3 13.3 0ZM47.5 0L27.6 0 27.6-1.7 35.8-1.7 35.8-35.3 27.6-35.3 27.6-37 47.5-37 47.5-35.3 39.3-35.3 39.3-1.7 47.5-1.7 47.5 0ZM63.45 0.5L63.45 0.5Q61.3 0.5 59.82-0.33 58.35-1.15 57.47-2.33 56.6-3.5 56.15-4.7 55.7-5.9 55.6-6.65L55.6-6.65 55.2-6.65 55.2 0 53.6 0 53.6-14.75 56.2-14.75 56.2-12.8Q56.2-11.95 56.32-10.5 56.45-9.05 56.82-7.45 57.2-5.85 57.95-4.42 58.7-3 60-2.1 61.3-1.2 63.3-1.2L63.3-1.2Q65.7-1.2 67.2-2.68 68.7-4.15 68.7-6.8L68.7-6.8Q68.7-9.1 67.67-11.05 66.65-13 65-14.78 63.35-16.55 61.52-18.28 59.7-20 58.05-21.78 56.4-23.55 55.37-25.58 54.35-27.6 54.35-29.95L54.35-29.95Q54.35-32.3 55.4-33.98 56.45-35.65 58.17-36.58 59.9-37.5 62-37.5L62-37.5Q64.34-37.5 65.8-36.5 67.25-35.5 68.05-34.2 68.84-32.9 69.15-31.95L69.15-31.95 69.55-31.95 69.55-37 71.15-37 71.15-24.6 68.55-24.6 68.55-26.2Q68.55-28.9 67.77-31.1 67-33.3 65.57-34.58 64.15-35.85 62.1-35.85L62.1-35.85Q60.05-35.85 58.87-34.5 57.7-33.15 57.7-31.1L57.7-31.1Q57.7-29.1 58.72-27.28 59.75-25.45 61.4-23.73 63.05-22 64.87-20.25 66.7-18.5 68.34-16.63 70-14.75 71.02-12.63 72.05-10.5 72.05-8L72.05-8Q72.05-5.4 70.87-3.5 69.7-1.6 67.75-0.55 65.8 0.5 63.45 0.5ZM87.59 0.5L87.59 0.5Q83.64 0.5 81.54-1.75 79.44-4 79.44-8.25L79.44-8.25 79.44-35.3 76.24-35.3 76.24-37 86.64-37 86.64-35.3 82.94-35.3 82.94-8.2Q82.94-5 84.37-3.28 85.79-1.55 88.49-1.55L88.49-1.55Q91.19-1.55 92.62-3.28 94.04-5 94.04-8.2L94.04-8.2 94.04-35.3 91.09-35.3 91.09-37 98.69-37 98.69-35.3 95.74-35.3 95.74-8.25Q95.74-4 93.67-1.75 91.59 0.5 87.59 0.5ZM107.84 0L99.94 0 99.94-1.7 102.59-1.7 111.24-37 113.24-37 121.89-1.7 125.09-1.7 125.09 0 113.29 0 113.29-1.7 118.34-1.7 115.44-13.55 107.19-13.55 104.34-1.7 107.84-1.7 107.84 0ZM115.04-15.15L111.29-30.6 107.59-15.15 115.04-15.15ZM147.59 0L126.54 0 126.54-1.7 130.74-1.7 130.74-35.3 126.54-35.3 126.54-37 138.44-37 138.44-35.3 134.24-35.3 134.24-1.75 141.34-1.75Q144.99-1.75 145.44-5.4L145.44-5.4 146.19-11.7 147.59-11.7 147.59 0ZM197.58 0L176.53 0 176.53-1.7 180.73-1.7 180.73-35.3 176.53-35.3 176.53-37 188.43-37 188.43-35.3 184.23-35.3 184.23-1.75 191.33-1.75Q194.98-1.75 195.43-5.4L195.43-5.4 196.18-11.7 197.58-11.7 197.58 0ZM207.83 0L199.93 0 199.93-1.7 202.58-1.7 211.23-37 213.23-37 221.88-1.7 225.08-1.7 225.08 0 213.28 0 213.28-1.7 218.33-1.7 215.43-13.55 207.18-13.55 204.33-1.7 207.83-1.7 207.83 0ZM215.03-15.15L211.28-30.6 207.58-15.15 215.03-15.15ZM238.53 0L226.38 0 226.38-1.7 230.58-1.7 230.58-35.3 226.38-35.3 226.38-37 238.23-37Q242.78-37 245.18-34.7 247.58-32.4 247.58-28L247.58-28Q247.58-25.55 246.78-23.9 245.98-22.25 244.83-21.38 243.68-20.5 242.58-20.25L242.58-20.25 242.58-19.9Q243.98-19.65 245.45-18.55 246.93-17.45 247.98-15.45 249.03-13.45 249.03-10.45L249.03-10.45Q249.03-5.4 246.33-2.7 243.63 0 238.53 0L238.53 0ZM234.08-35.4L234.08-20.7 238.63-20.7Q243.63-20.7 243.63-25.7L243.63-25.7 243.63-30.4Q243.63-35.4 238.63-35.4L238.63-35.4 234.08-35.4ZM234.08-19.15L234.08-1.6 238.63-1.6Q241.73-1.6 243.33-3.23 244.93-4.85 244.93-7.9L244.93-7.9 244.93-12.85Q244.93-15.95 243.33-17.55 241.73-19.15 238.63-19.15L238.63-19.15 234.08-19.15Z" opacity="1" transform="matrix(1,0,0,1,0,0)" fill="#000000" class="wordmark-text-0" data-fill-palette-color="primary" id="text-0"></path></svg></g></svg></g></svg></g></svg></g><g><svg viewBox="0 0 83.21766153846154 83.21766153846154" height="83.21766153846154" width="83.21766153846154"><g><svg xmlns="http://www.w3.org/2000/svg" xmlns:xlink="http://www.w3.org/1999/xlink" version="1.0" x="0" y="0" viewBox="10 10 80 80" enable-background="new 0 0 100 100" xml:space="preserve" height="83.21766153846154" width="83.21766153846154" class="icon-icon-0" data-fill-palette-color="accent" id="icon-0"><polygon points="90,43.334 76.667,43.334 76.667,10 50,56.668 63.333,56.668 63.333,90 " fill="#000000" data-fill-palette-color="accent"></polygon><rect x="10" y="50" width="33.333" height="6.668" fill="#000000" data-fill-palette-color="accent"></rect><rect x="16.667" y="36.668" width="33.333" height="6.666" fill="#000000" data-fill-palette-color="accent"></rect><rect x="30" y="23.334" width="26.667" height="6.666" fill="#000000" data-fill-palette-color="accent"></rect><rect x="16.667" y="63.334" width="40" height="6.666" fill="#000000" data-fill-palette-color="accent"></rect></svg></g></svg></g></svg></g><defs></defs></svg><rect width="395.5199999999999" height="66.76953970493285" fill="none" stroke="none" visibility="hidden"></rect></g></svg></g></svg>